<svg xmlns="http://www.w3.org/2000/svg" viewBox="0 0 512 512" width="32" height="32">
  <path fill="#000000" d="M256 0c-23.7 0-47.3 2.76-70.5 8.1-10.5 2.5-18.3 11.1-19.7 21.9-4 30.2 5.5 62.3 26.6 86.1 6.7 7.5 14.3 14.2 22.5 19.9-8.8 21.4-29.7 36.5-54 36.5-7.7 0-15.3-1.5-22.4-4.5-22.9-9.5-38.6-32.4-38.6-58.4 0-34.7 27.5-62.9 61.5-62.9 1.7 0 3.4.1 5.1.2 10.1.7 19.4-5.5 22.9-15.1 3.4-9.6-.2-20.3-8.9-26.2C153 1.5 127.7-1.2 103.1 .7 79.4 2.5 56.2 9.7 35.4 21.4c-52 29.1-84.8 84.2-84.8 143.6 0 92.3 74.7 167 167 167 .9 0 1.8 0 2.7-.1-8.2 18.9-12.6 39.5-12.6 60.9 0 19.9 3.9 39.1 11.5 57.1 5.4 12.9 16.9 21.2 30.3 21.2h213c13.4 0 24.9-8.3 30.3-21.2 7.6-18 11.5-37.2 11.5-57.1 0-21.4-4.4-42-12.6-60.9.9 0 1.8.1 2.7.1 92.3 0 167-74.7 167-167 0-59.4-32.8-114.5-84.8-143.6-20.8-11.7-44-18.9-67.7-20.7-24.7-1.9-49.9.8-73.5 8.2-8.7 5.9-12.3 16.6-8.9 26.2 3.4 9.6 12.8 15.8 22.9 15.1 1.7-.1 3.4-.2 5.1-.2 34 0 61.5 28.2 61.5 62.9 0 26-15.7 48.9-38.6 58.4-7.1 3-14.7 4.5-22.4 4.5-24.3 0-45.2-15.1-54-36.5 8.2-5.7 15.8-12.4 22.5-19.9 21.1-23.8 30.6-55.9 26.6-86.1-1.4-10.8-9.2-19.4-19.7-21.9C303.3 2.76 279.7 0 256 0zm-147.4 64c-35.5 0-64.3 29.1-64.3 65 0 35.9 28.8 65 64.3 65s64.3-29.1 64.3-65c0-35.9-28.8-65-64.3-65zm294.8 0c-35.5 0-64.3 29.1-64.3 65 0 35.9 28.8 65 64.3 65s64.3-29.1 64.3-65c0-35.9-28.8-65-64.3-65zM256 256c-35.2 0-63.9 28.7-63.9 64s28.7 64 63.9 64 63.9-28.7 63.9-64-28.7-64-63.9-64z"/>
</svg>